<?xml version="1.0" encoding="UTF-8"?>
<svg width="32px" height="34px" viewBox="0 0 32 34" version="1.1" xmlns="http://www.w3.org/2000/svg" xmlns:xlink="http://www.w3.org/1999/xlink">
    <!-- Generator: Sketch 64 (93537) - https://sketch.com -->
    <title>cat-icon</title>
    <desc>Created with Sketch.</desc>
    <g id="Page-1" stroke="none" stroke-width="1" fill="none" fill-rule="evenodd">
        <g id="ui" transform="translate(-204.000000, -2964.000000)" fill="#FFFFFF" fill-rule="nonzero" stroke="#FFFFFF" stroke-width="0.6">
            <g id="11" transform="translate(0.000000, 2737.000000)">
                <g id="categories" transform="translate(0.000000, 206.000000)">
                    <g id="кошки" transform="translate(204.000000, 21.000000)">
                        <g id="cat-icon" transform="translate(0.595052, 0.783510)">
                            <path d="M11.3553209,16.3372338 C11.2436721,16.1021241 10.962508,16.0021617 10.7274611,16.1138733 C10.4924143,16.225585 10.392389,16.5066862 10.5041007,16.7417331 C10.5868477,16.9158349 10.6288181,17.1029425 10.6288181,17.2977154 L10.6288181,18.3082724 C10.6288181,19.0235286 10.0468871,19.6054597 9.33163083,19.6054597 C8.6163746,19.6054597 8.03444355,19.0235286 8.03444355,18.3082724 L8.03444355,17.2977154 C8.03444355,16.5824592 8.6163746,16.0005281 9.33163083,16.0005281 C9.59187251,16.0005281 9.80285551,15.7895451 9.80285551,15.5293034 C9.80285551,15.2690617 9.59187251,15.0580787 9.33163083,15.0580787 C8.09670803,15.0580787 7.09199419,16.0627926 7.09199419,17.2977154 L7.09199419,18.3082724 C7.09199419,19.543258 8.09670803,20.547909 9.33163083,20.547909 C10.5665536,20.547909 11.5712675,19.543258 11.5712675,18.3082724 L11.5712675,17.2977154 C11.5712675,16.9618893 11.498636,16.6387548 11.3553209,16.3372338 Z" id="Shape"></path>
                            <path d="M22.9764754,16.3372338 C22.8647637,16.1021241 22.5836625,16.002036 22.3486156,16.1138733 C22.1135687,16.225585 22.0135434,16.5066862 22.1252551,16.7417331 C22.2080022,16.9158349 22.2499726,17.1029425 22.2499726,17.2977154 L22.2499726,18.3082724 C22.2499726,19.0235286 21.6680415,19.6054597 20.9527853,19.6054597 C20.2375291,19.6054597 19.655598,19.0235286 19.655598,18.3082724 L19.655598,17.2977154 C19.655598,16.5824592 20.2375291,16.0005281 20.9527853,16.0005281 C21.213027,16.0005281 21.42401,15.7895451 21.42401,15.5293034 C21.42401,15.2690617 21.213027,15.0580787 20.9527853,15.0580787 C19.7177997,15.0580787 18.7131486,16.0627926 18.7131486,17.2977154 L18.7131486,18.3082724 C18.7131486,19.543258 19.7178625,20.547909 20.9527853,20.547909 C22.1877081,20.547909 23.1924219,19.543258 23.1924219,18.3082724 L23.1924219,17.2977154 C23.1924219,16.9618893 23.1197905,16.6387548 22.9764754,16.3372338 Z" id="Shape"></path>
                            <path d="M20.0403687,25.5540743 C19.866581,25.3603067 19.5687042,25.3440966 19.3749366,25.5178843 C18.9032093,25.9409184 18.2971515,26.1739547 17.668475,26.1739547 C17.1513216,26.1739547 16.6532057,26.0203983 16.2279725,25.7298726 C15.5785621,25.2862302 14.705854,25.2861674 14.0563179,25.7298726 C13.6310848,26.0203983 13.1329689,26.1739547 12.6158155,26.1739547 C11.987139,26.1739547 11.381144,25.9409812 10.9093539,25.5178843 C10.7155863,25.3440966 10.4177095,25.3603067 10.2439218,25.5540743 C10.0701341,25.7477791 10.0863443,26.0457187 10.2801119,26.2195064 C10.9249985,26.797919 11.7545425,27.116404 12.6158155,27.116404 C12.6271877,27.116404 12.6384971,27.1159014 12.6498693,27.1157757 L12.6498693,27.6557364 C12.6498693,29.030016 13.7679284,30.1480123 15.1421452,30.1480123 C16.516362,30.1480123 17.6344211,29.030016 17.6344211,27.6557364 L17.6344211,27.1157757 C17.6457933,27.1159014 17.6571027,27.116404 17.668475,27.116404 C18.529748,27.116404 19.3592291,26.7978562 20.0041786,26.2195064 C20.1979462,26.0457187 20.2141563,25.7478419 20.0403687,25.5540743 Z M16.6920346,27.6557364 C16.6920346,28.5103495 15.9967583,29.2055629 15.1422081,29.2055629 C14.2876578,29.2055629 13.5923815,28.5103495 13.5923815,27.6557364 L13.5923815,26.9777383 C13.9447319,26.8755768 14.2803695,26.7182506 14.5880478,26.5080216 C14.6148134,26.4897381 14.6426471,26.4735279 14.6709834,26.4582602 L14.6709834,27.1504579 C14.6709834,27.4106996 14.8819664,27.6216826 15.1422081,27.6216826 C15.4024497,27.6216826 15.6134327,27.4106996 15.6134327,27.1504579 L15.6134327,26.4582602 C15.641769,26.4735279 15.6696655,26.4897381 15.6963683,26.5080216 C16.0040466,26.7182506 16.3396842,26.8755768 16.6920346,26.9777383 L16.6920346,27.6557364 Z" id="Shape"></path>
                            <path d="M17.2002661,21.566257 C17.0252219,21.199707 16.6641381,20.9720113 16.2579424,20.9720113 L14.0264737,20.9720113 C13.620278,20.9720113 13.2591943,21.1997698 13.08415,21.566257 C12.9091057,21.932807 12.9589927,22.3567207 13.2143337,22.6725669 L14.3301309,24.0530667 C14.5293647,24.2994858 14.8253566,24.4407903 15.1422081,24.4407903 C15.4590595,24.4407903 15.7550515,24.2994858 15.9542852,24.0530667 L17.0700825,22.6726297 C17.3253606,22.3567207 17.3752476,21.932807 17.2002661,21.566257 Z M16.3370453,22.0801432 L15.2212481,23.4605173 C15.1959905,23.4918067 15.1642614,23.498341 15.1420824,23.498341 C15.1199034,23.498341 15.0881743,23.4918067 15.0629167,23.4605802 L13.9471195,22.0801432 C13.9204796,22.0470946 13.9162071,22.0108418 13.9345535,21.9723898 C13.9528998,21.9339379 13.9838121,21.9144606 14.0264109,21.9144606 L16.2578796,21.9144606 C16.3004783,21.9144606 16.3313906,21.9339379 16.349737,21.9723898 C16.3680833,22.0107789 16.3638109,22.0470946 16.3370453,22.0801432 Z" id="Shape"></path>
                            <path d="M29.9172378,22.6532781 C29.6580014,22.5835996 29.3820523,22.5212095 29.0946052,22.4651652 C29.5327813,21.1373169 29.7608541,19.7396017 29.7608541,18.3082724 C29.7608541,16.5398604 29.4133416,14.8225921 28.7502971,13.2254546 L28.7502971,1.48385509 C28.7502971,0.906636275 28.4265343,0.393943829 27.9053598,0.145891159 C27.3841853,-0.10216151 26.7821487,-0.0301583792 26.3341711,0.33381556 L20.2181146,5.30309967 C18.6146941,4.74139985 16.9022636,4.44741849 15.1420824,4.44741849 C13.3819012,4.44741849 11.6694707,4.74139985 10.0660502,5.30309967 L3.95011938,0.33381556 C3.50214179,-0.0301583792 2.90004231,-0.10222434 2.37893065,0.145891159 C1.85775616,0.393943829 1.53399339,0.906636275 1.53399339,1.48385509 L1.53399339,13.2255174 C0.87101169,14.8225921 0.523436369,16.5399233 0.523436369,18.3082724 C0.523436369,19.7396017 0.751571942,21.1373797 1.18968523,22.4651652 C0.902238178,22.5212095 0.626289009,22.5835368 0.367052607,22.6532781 C0.11573278,22.7208203 -0.0332370471,22.9793027 0.0343051564,23.2306225 C0.0908521174,23.4410401 0.281164056,23.5796429 0.489068383,23.5796429 C0.529530875,23.5796429 0.570747327,23.5743652 0.611712459,23.56337 C0.894321604,23.4874086 1.20017783,23.4206203 1.52155306,23.361623 C1.83859302,24.1305988 2.22926969,24.8714897 2.68937347,25.5771329 C2.20074489,25.7795711 1.72625306,25.9963344 1.28254791,26.2271088 C1.05164782,26.3471769 0.961800977,26.6316709 1.08186902,26.862571 C1.16580985,27.024044 1.33011018,27.1165297 1.50031654,27.1165297 C1.57351344,27.1165297 1.64784127,27.09944 1.71733121,27.0633127 C2.19326813,26.8158255 2.71098697,26.5840458 3.24610971,26.368916 C3.71318761,26.9857806 4.236247,27.5712301 4.81440826,28.118479 C7.5744026,30.7306345 11.2421642,32.1691892 15.1420824,32.1691892 C19.0420006,32.1691892 22.709825,30.7306345 25.4697565,28.118479 C26.0479806,27.5712301 26.5711028,26.9857806 27.0381807,26.3688532 C27.5731778,26.583983 28.0908967,26.8158255 28.5668964,27.0633127 C28.6363235,27.09944 28.7106514,27.1165297 28.7839111,27.1165297 C28.9541174,27.1165297 29.1184178,27.024044 29.2024214,26.862571 C29.3224895,26.6316709 29.2326426,26.3471769 29.0017426,26.2271088 C28.5580374,25.9963972 28.0835456,25.7795711 27.594917,25.5771958 C28.0550208,24.8715525 28.4456974,24.1306617 28.7627374,23.3616858 C29.0840498,23.4206832 29.3899689,23.4874714 29.6725152,23.5634328 C29.7134803,23.5744281 29.7546968,23.5797058 29.7951592,23.5797058 C30.0030636,23.5797058 30.1933755,23.4410401 30.2499225,23.2306854 C30.3175903,22.9793027 30.1685577,22.7208203 29.9172378,22.6532781 Z M26.9285425,1.06528192 C27.0940366,0.930825809 27.3078469,0.905191186 27.5004207,0.996922923 C27.6916123,1.0879007 27.8060256,1.26815985 27.8076592,1.47945699 L26.8970018,2.50609848 C26.7242823,2.70080852 26.742126,2.99862251 26.936836,3.17134207 C27.0265572,3.25094762 27.138206,3.29002785 27.2493522,3.29002785 C27.3794102,3.29002785 27.5089656,3.2364339 27.6020796,3.13150787 L27.8079734,2.89941401 L27.8079734,11.3764946 C27.1728882,10.3371615 26.3906552,9.36958013 25.469945,8.49819146 C24.9906153,8.04455917 24.4833262,7.62717977 23.9527901,7.24567627 L26.2662519,4.63747911 C26.4389714,4.44276907 26.4211277,4.14495507 26.2264177,3.97223552 C26.0317077,3.7995788 25.7338308,3.81742251 25.5611741,4.01206972 L23.1630803,6.71564275 C22.5437026,6.32873588 21.8965541,5.9890143 21.2266611,5.6981116 L26.9285425,1.06528192 Z M2.78393255,0.996860093 C2.9765692,0.905191186 3.19031671,0.930825809 3.35581082,1.06521909 L9.05769222,5.69804877 C8.38779922,5.9890143 7.74065067,6.32867305 7.12127295,6.71564275 L2.47669406,1.47939416 C2.47832764,1.26809702 2.59274099,1.08783787 2.78393255,0.996860093 Z M2.47644274,2.89935118 L6.33162606,7.24561344 C5.8010899,7.62711694 5.29380083,8.04443351 4.81447109,8.49812863 C3.89376091,9.3695173 3.11152795,10.3371615 2.47644274,11.3764946 L2.47644274,2.89935118 Z M28.146564,22.3079646 C25.2614752,21.9025857 21.7795019,22.0004748 21.6016931,22.0058154 C21.3415771,22.0136691 21.1370027,22.2308723 21.1448565,22.4909883 C21.1527102,22.7511043 21.3693479,22.9549875 21.6300294,22.9478249 C21.67156,22.9465683 25.0123544,22.8527632 27.7938995,23.2121505 C27.4872264,23.9155319 27.1169695,24.5881266 26.689286,25.223149 C23.9106312,24.1960048 21.0095207,23.6235611 20.8533883,23.5931514 C20.5979845,23.5434529 20.3504973,23.7101408 20.300736,23.9656074 C20.2509747,24.221074 20.4177254,24.4684983 20.673192,24.5182597 C20.7094449,24.5252966 23.45103,25.0660741 26.1098681,26.0171939 C23.6143251,29.1769125 19.6270104,31.226677 15.1421452,31.226677 C10.6574057,31.226677 6.67009103,29.1769753 4.17454798,26.0173196 C6.83263213,25.0666395 9.57490842,24.5252966 9.61116131,24.5181968 C9.86656508,24.4684355 10.0333158,24.2210111 9.98349163,23.9655445 C9.93373031,23.7101408 9.6864316,23.5435786 9.43090216,23.5931514 C9.27476972,23.6235611 6.3736593,24.1960048 3.59500446,25.223149 C3.16732095,24.5881266 2.79706401,23.9155319 2.49032816,23.2120249 C5.27181035,22.8527003 8.61260481,22.9464426 8.65419824,22.9477621 C8.91462841,22.9573122 9.13151742,22.7510415 9.13937116,22.4909255 C9.14722491,22.2308094 8.9427134,22.0135434 8.68253455,22.0057525 C8.50466294,22.0003492 5.02268957,21.9025229 2.13760079,22.3079646 C1.70218919,21.0479727 1.46582289,19.7038514 1.46582289,18.3083352 C1.46582289,11.1851146 7.60097967,5.38993067 15.1420824,5.38993067 C22.6831851,5.38993067 28.8183419,11.1851146 28.8183419,18.3083352 C28.8183419,19.7038514 28.5819128,21.0479727 28.146564,22.3079646 Z" id="Shape"></path>
                        </g>
                    </g>
                </g>
            </g>
        </g>
    </g>
</svg>